# xmcd CD database file
#
# Track frame offsets:
#	150
#	20950
#	38207
#	59935
#	76550
#	96227
#	121762
#	137355
#	158800
#	179630
#
# Disc length: 2624 seconds
#
# Revision: 0
# Processed by: cddbd v1.5.1PL0 Copyright (c) Steve Scherf et al.
# Submitted via: CDex 1.51
#
DISCID=830a3e0a
DTITLE=笠井紀美子 - New Pastel
DYEAR=1984
DGENRE=Jazz Vocals
TTITLE0=Give Me Your Heart Tonight
TTITLE1=Chameleon
TTITLE2=Alfie
TTITLE3=You Take My Breath Away
TTITLE4=It's Not The First Time
TTITLE5=You'll Never Know
TTITLE6=So In Love
TTITLE7=Lullaby Of L.A.
TTITLE8=Louisiana Sunday Afternoon
TTITLE9=I Will Wait For You
EXTD=YEAR: 1984
EXTT0=
EXTT1=
EXTT2=
EXTT3=
EXTT4=
EXTT5=
EXTT6=
EXTT7=
EXTT8=
EXTT9=
PLAYORDER=
